<?xml version="1.0" standalone="no"?>
<!DOCTYPE svg PUBLIC "-//W3C//DTD SVG 20010904//EN"
 "http://www.w3.org/TR/2001/REC-SVG-20010904/DTD/svg10.dtd">
<svg version="1.0" xmlns="http://www.w3.org/2000/svg"
 width="829.000000pt" height="366.000000pt" viewBox="0 0 829.000000 366.000000"
 preserveAspectRatio="xMidYMid meet">

<g transform="translate(0.000000,366.000000) scale(0.100000,-0.100000)"
fill="#000000" stroke="none">
<path d="M1860 1830 l0 -1830 850 0 850 0 2 514 3 514 270 -242 c149 -132 408
-364 575 -513 l305 -273 273 0 272 0 0 1575 0 1575 320 0 320 0 0 -1575 0
-1575 265 0 265 0 0 1830 0 1830 -847 0 -848 0 2 -504 c2 -304 -1 -507 -6
-511 -6 -3 -265 224 -578 504 l-568 510 -277 0 -278 1 0 -1575 0 -1575 -320 0
-320 0 0 1575 0 1575 -265 0 -265 0 0 -1830z m2298 605 l582 -520 0 -607 c0
-335 -3 -608 -8 -608 -6 0 -380 332 -999 887 l-173 155 0 610 c0 335 4 608 8
606 5 -1 271 -237 590 -523z"/>
<path d="M7093 2260 c-122 -26 -205 -127 -219 -267 l-7 -63 107 0 106 0 0 25
c0 38 25 92 48 104 52 28 132 -7 132 -56 -1 -60 -84 -156 -302 -348 l-88 -77
0 -59 0 -59 310 0 310 0 0 90 0 90 -131 0 c-72 0 -129 4 -127 8 2 5 36 37 77
72 77 66 128 129 148 183 15 42 16 140 1 189 -16 55 -78 121 -137 146 -56 25
-166 35 -228 22z"/>
<path d="M7772 2004 l-172 -247 0 -73 0 -74 190 0 190 0 0 -75 0 -75 105 0
105 0 0 75 0 75 50 0 50 0 0 84 0 85 -47 3 -48 3 -3 233 -2 232 -123 0 -123 0
-172 -246z m208 -124 l0 -100 -70 0 c-38 0 -70 3 -70 7 0 13 124 193 132 193
4 0 8 -45 8 -100z"/>
<path d="M172 2202 c-107 -38 -172 -134 -172 -252 l0 -70 100 0 100 0 0 36 c0
68 33 103 96 104 50 0 74 -23 74 -72 0 -56 -49 -116 -215 -265 l-154 -138 0
-67 -1 -68 305 0 305 0 0 95 0 95 -136 0 -136 0 74 61 c85 71 117 107 147 168
47 91 34 217 -29 293 -71 85 -238 122 -358 80z"/>
<path d="M949 2207 c-114 -33 -181 -125 -203 -284 l-6 -43 109 0 108 0 6 47
c6 60 41 93 96 93 76 0 98 -75 45 -152 -26 -37 -140 -147 -291 -279 l-61 -54
-1 -62 -1 -63 310 0 310 0 0 95 0 95 -132 0 -133 1 55 47 c143 122 190 198
190 310 0 102 -64 198 -158 238 -50 21 -185 27 -243 11z"/>
</g>
</svg>
